<?xml version="1.0" encoding="utf-8"?>
<!-- Generator: Adobe Illustrator 18.1.0, SVG Export Plug-In . SVG Version: 6.00 Build 0)  -->
<svg version="1.1" id="Layer_1" xmlns="http://www.w3.org/2000/svg" xmlns:xlink="http://www.w3.org/1999/xlink" x="0px" y="0px"
	 viewBox="0 0 500 500" enable-background="new 0 0 500 500" xml:space="preserve">
<path fill="#2F2012" d="M497.3,398.9L296.2,91.4c-3-4.5-6.8-6.7-10.7-6.7c-3.9,0-7.8,2.2-10.7,6.7l-65.5,100.1l-38.3-58.6
	c-3-4.5-6.8-6.7-10.7-6.7c-3.9,0-7.8,2.2-10.7,6.7L2.7,357.4c-5.8,9.1-1.9,16.4,8.8,16.4H90l-16.4,25.1c-5.8,9.1-1.9,16.4,8.8,16.4
	h405.9C499.2,415.3,503.1,408,497.3,398.9z M160.3,170.1l27.6,42.1l-86.5,132.3H46.3L160.3,170.1z M117.2,386l168.2-257.2L453.7,386
	H117.2z"/>
</svg>
